<?xml version="1.0"?>
<svg xmlns="http://www.w3.org/2000/svg" viewBox="0 0 64 64" width="512" height="512"><g id="Outline"><g><path d="M55,27a1,1,0,0,0-1,1V53a2,2,0,0,1-2,2H6a2,2,0,0,1-2-2V23a2,2,0,0,1,2-2H44.07a1,1,0,0,0,0-2H6a4,4,0,0,0-4,4V53a4,4,0,0,0,4,4H52a4,4,0,0,0,4-4V28A1,1,0,0,0,55,27Z"/><path d="M13,29a1,1,0,0,0-1-1H8a1,1,0,0,0-1,1v4a1,1,0,0,0,1,1h4a1,1,0,0,0,1-1Zm-2,3H9V30h2Z"/><path d="M13,37a1,1,0,0,0-1-1H8a1,1,0,0,0-1,1v4a1,1,0,0,0,1,1h4a1,1,0,0,0,1-1Zm-2,3H9V38h2Z"/><path d="M8,48a1,1,0,0,0,0,2h4a1,1,0,0,0,1-1V45a1,1,0,0,0-1-1H8a1,1,0,0,0,0,2h3v2Z"/><path d="M34,30a1,1,0,0,0,1-1V26a1,1,0,0,0-1-1H18a1,1,0,0,0-1,1V40a1,1,0,0,0,1,1H34a1,1,0,0,0,1-1V33a1,1,0,0,0-2,0v6H30.62l-2.73-5.45a1,1,0,0,0-1.78,0L25,35.76l-2.11-4.21a1,1,0,0,0-1.78,0L19,35.76V27H33v2A1,1,0,0,0,34,30Zm-7,6.24L28.38,39H26.62l-.5-1Zm-5-2L24.38,39H19.62Z"/><circle cx="29" cy="30" r="1"/><path d="M18,43a1,1,0,0,0-1,1v6a1,1,0,0,0,1,1h6a1,1,0,0,0,1-1V44a1,1,0,0,0-1-1Zm5,6H19V45h4Z"/><path d="M34,43H28a1,1,0,0,0-1,1v6a1,1,0,0,0,1,1h6a1,1,0,0,0,1-1V44A1,1,0,0,0,34,43Zm-1,6H29V45h4Z"/><path d="M41.33,27a1,1,0,0,0,0-2H38a1,1,0,0,0-1,1V50a1,1,0,0,0,1,1H50a1,1,0,0,0,1-1V36.19a1,1,0,0,0-2,0V49H39V27Z"/><path d="M42,43h4a1,1,0,0,0,0-2H42a1,1,0,0,0,0,2Z"/><path d="M42,47h4a1,1,0,0,0,0-2H42a1,1,0,0,0,0,2Z"/><path d="M60.47,5.41a3.05,3.05,0,0,0-4.14,1L41.52,30.23a1,1,0,0,0-.15.47L41,37.39a1,1,0,0,0,.5.93,1,1,0,0,0,.5.13,1,1,0,0,0,.55-.16l5.59-3.7a1,1,0,0,0,.34-.36l9.42-17.65a1,1,0,0,0-1.77-.95L46.8,33.06l-3.72,2.46.27-4.45L58,7.5a1.06,1.06,0,0,1,1.84,1.07L58,12.1a1,1,0,1,0,1.76.94l1.89-3.53A3.06,3.06,0,0,0,60.47,5.41Z"/></g></g></svg>
